<svg width="488" height="694" viewBox="0 0 488 694" fill="none" xmlns="http://www.w3.org/2000/svg">
<path d="M487.571 384.16C487.571 357.327 461.207 335.488 428.768 335.488C413.601 335.488 399.836 340.296 389.383 348.087C375.008 338.941 357.976 333.618 339.867 333.618H217.419C218.398 329.514 218.913 325.311 218.913 320.972C218.913 309.956 215.648 299.456 209.674 290.639C215.648 281.821 218.913 271.321 218.913 260.259C218.913 245.139 212.611 231.092 202.111 221.061C213.543 205.103 219.657 186.483 219.657 167.02C219.657 147.047 213.173 128.473 202.017 112.932C204.398 102.291 205.611 90.812 205.611 79.568C205.611 41.256 192.08 0 162.304 0C135.331 0 121.706 33.7867 119.372 68.5987C116.898 68.458 114.471 68.3174 111.951 68.3174C109.477 68.3174 107.049 68.458 104.576 68.5987C102.242 33.7867 88.617 0 61.6436 0C31.873 0 18.3369 41.2547 18.3369 79.568C18.3369 90.8128 19.5505 102.297 21.9307 112.932C10.7796 128.473 4.29067 147.047 4.29067 167.02C4.29067 189.327 12.598 210.837 27.5307 228.108C20.7651 237.301 16.9837 248.457 16.9837 260.259C16.9837 271.321 20.2493 281.821 26.2233 290.639C20.2493 299.456 16.9837 309.956 16.9837 320.972C16.9837 328.67 18.6192 336.185 21.6973 343.092C8.44215 353.123 0 369.087 0 386.447C0 398.905 4.19787 410.665 11.6667 420.092C4.19787 429.472 0 441.232 0 453.737C0 473.383 10.7812 490.931 26.88 500.451C27.0206 537.087 38.1248 570.591 56.4213 590.377V658.091C56.4213 677.503 72.192 693.279 91.6093 693.279H99.3541C118.766 693.279 134.542 677.508 134.542 658.091V590.377C136.271 588.513 137.901 586.502 139.49 584.403C141.079 586.502 142.709 588.507 144.438 590.377V658.091C144.438 677.503 160.209 693.279 179.626 693.279H187.371C206.783 693.279 222.559 677.508 222.559 658.091V590.377C231.845 580.346 239.361 566.669 244.491 550.617H245.939C251.027 566.481 258.491 580.253 267.871 590.377V658.091C267.871 677.503 283.641 693.279 303.059 693.279H310.803C330.215 693.279 345.991 677.508 345.991 658.091V590.377C348.09 588.138 350.054 585.664 351.918 583.096C353.83 585.664 355.793 588.138 357.845 590.377V658.091C357.845 677.503 373.663 693.279 393.08 693.279H400.825C420.189 693.279 436.013 677.508 436.013 658.091V590.377C454.352 570.451 465.554 536.617 465.554 499.705C465.554 473.247 459.862 448.7 450.013 429.565C471.986 422.472 487.576 404.831 487.576 384.159L487.571 384.16ZM162.304 33.9203C166.408 39.0557 172.945 54.8736 172.945 79.5603C172.945 81.6592 172.851 83.6228 172.757 85.5811C166.226 81.5185 159.178 78.0655 151.757 75.3623C152.455 53.1023 158.429 38.7743 162.304 33.9196L162.304 33.9203ZM61.6425 33.9203C65.5175 38.7744 71.4915 53.1029 72.1895 75.3576C64.7676 78.0659 57.7201 81.5191 51.1895 85.5764C51.0957 83.618 51.002 81.6545 51.002 79.5556C51.002 54.8729 57.5384 39.0556 61.6426 33.9196L61.6425 33.9203ZM107.517 571.147L101.871 576.048V658.089C101.871 659.49 100.752 660.61 99.3505 660.61H91.6057C90.2047 660.61 89.0849 659.49 89.0849 658.089V576.048L83.3923 571.147C79.0537 567.366 74.71 561.485 70.9339 553.835C81.7151 560.09 93.9392 563.449 106.726 563.449H114.33C112.137 566.569 109.851 569.137 107.517 571.147L107.517 571.147ZM318.971 571.147L313.325 576.048V658.089C313.325 659.49 312.205 660.61 310.804 660.61L303.054 660.605C301.653 660.605 300.533 659.485 300.533 658.084V576.043L294.84 571.142C289.939 566.85 284.991 559.85 280.887 550.611H332.966C328.862 559.851 323.914 566.851 318.971 571.147L318.971 571.147ZM408.987 571.147C405.393 574.225 403.341 578.751 403.341 583.511V658.085C403.341 659.486 402.221 660.606 400.82 660.606H393.075C391.674 660.606 390.507 659.486 390.507 658.085V583.511C390.507 578.751 388.455 574.225 384.862 571.147C375.856 563.355 368.388 548.606 364.331 530.688C362.649 523.219 356.023 517.949 348.419 517.949L232.028 517.943C224.377 517.943 217.793 523.214 216.116 530.683C212.054 548.604 204.59 563.35 195.585 571.142C191.992 574.22 189.893 578.746 189.893 583.506V658.08C189.893 659.481 188.773 660.6 187.372 660.6H179.627C178.226 660.6 177.106 659.481 177.106 658.08V583.506C177.106 578.746 175.054 574.22 171.461 571.142C164.507 565.168 158.346 554.762 154.054 541.928C151.814 535.257 145.606 530.777 138.559 530.777H106.731C96.2312 530.777 86.3819 526.673 78.9659 519.298C71.544 511.876 67.4867 501.986 67.4867 491.533C67.4867 483.038 60.9555 475.945 52.508 475.246C41.357 474.314 32.6747 464.887 32.6747 453.73C32.6747 445.657 37.1069 438.282 44.2944 434.547C49.7059 431.745 53.0652 426.146 53.0652 420.078C53.0652 413.964 49.7059 408.411 44.2944 405.562C37.1069 401.828 32.6747 394.5 32.6747 386.426C32.6747 376.348 39.8153 367.478 49.612 365.333C55.6328 363.979 60.3932 359.406 61.9298 353.479C63.4714 347.505 61.5547 341.208 56.9349 337.145C52.2213 332.947 49.6537 327.208 49.6537 320.952C49.6537 314.139 52.8256 307.837 58.336 303.687C62.4401 300.609 64.8672 295.754 64.8672 290.619C64.8672 285.483 62.4401 280.635 58.336 277.551C52.8308 273.4 49.6537 267.098 49.6537 260.239C49.6537 252.817 53.4349 246.005 59.7319 241.994C64.1641 239.192 67.0131 234.39 67.2944 229.161C67.6225 223.89 65.3829 218.801 61.2736 215.489C45.5909 202.796 36.9616 185.577 36.9616 167.005C36.9616 130.603 70.6069 100.974 111.956 100.974C153.352 100.974 186.998 130.61 186.998 167.005C186.998 183.989 179.623 200.141 166.232 212.505C162.034 216.379 160.165 222.166 161.284 227.811C162.451 233.41 166.467 237.983 171.831 239.9C180.467 242.978 186.253 251.145 186.253 260.249C186.253 267.108 183.081 273.411 177.57 277.561C173.466 280.639 171.039 285.493 171.039 290.629C171.039 295.764 173.466 300.613 177.57 303.697C183.076 307.848 186.253 314.15 186.253 320.962C186.253 327.358 183.451 333.373 178.602 337.483C173.372 341.915 171.461 349.15 173.794 355.587C176.175 362.025 182.289 366.275 189.149 366.275H339.882C368.58 366.275 393.221 386.759 398.404 414.993C399.242 419.473 401.904 423.394 405.732 425.821C418.8 434.129 432.893 460.775 432.893 499.696C432.883 534.789 420.888 560.873 408.986 571.144L408.987 571.147ZM428.773 400.2H428.351C425.273 389.513 420.372 379.716 414.023 371.08C418.086 369.263 423.122 368.143 428.769 368.143C444.17 368.143 454.905 376.591 454.905 384.148C454.91 391.752 444.175 400.2 428.774 400.2L428.773 400.2Z" fill="white"/>
<path d="M90.9971 144.614C90.9971 152.452 84.6481 158.802 76.8091 158.802C68.9705 158.802 62.6211 152.453 62.6211 144.614C62.6211 136.775 68.97 130.426 76.8091 130.426C84.6476 130.426 90.9971 136.775 90.9971 144.614Z" fill="white"/>
<path d="M161.144 144.614C161.144 152.452 154.748 158.802 146.956 158.802C139.118 158.802 132.768 152.453 132.768 144.614C132.768 136.775 139.117 130.426 146.956 130.426C154.748 130.426 161.144 136.775 161.144 144.614Z" fill="white"/>
<path d="M93.5172 181.28C93.5172 186.285 96.6787 190.515 101.101 192.171C99.8454 197.249 95.288 201.035 89.8298 201.035C83.3871 201.035 78.1631 206.259 78.1631 212.702C78.1631 219.145 83.3871 224.369 89.8298 224.369C98.736 224.369 106.856 220.989 113.038 215.489C119.22 220.994 127.335 224.369 136.246 224.369C142.688 224.369 147.912 219.145 147.912 212.702C147.912 206.259 142.688 201.035 136.246 201.035C130.808 201.035 126.267 197.275 124.996 192.228C129.511 190.619 132.767 186.348 132.767 181.275C132.767 174.832 127.543 169.608 121.1 169.608L105.183 169.614C98.7347 169.614 93.5159 174.838 93.5159 181.28L93.5172 181.28Z" fill="white"/>
</svg>
