<svg width="2056" height="1805" viewBox="0 0 2056 1805" fill="none" xmlns="http://www.w3.org/2000/svg">
<path d="M0 1275.81V1555.83C0 1617.04 49.7915 1666.83 111.001 1666.83H182.719V1164.37H111.001C49.7915 1164.82 0 1214.61 0 1275.83V1275.81Z" fill="black"/>
<path d="M1716.18 1027.77H1598.79V590.627C1638.07 580.578 1667.3 544.945 1667.3 502.467C1667.3 224.734 1442.56 0 1164.84 0H890.759C613.026 0 388.292 224.742 388.292 502.467C388.292 544.95 417.527 580.579 456.81 590.627V1027.77H339.415C278.205 1027.77 228.414 1077.57 228.414 1138.78V1693.32C228.414 1754.53 278.205 1804.32 339.415 1804.32H548.17V1027.76H502.488V590.611C541.772 580.561 571.007 544.929 571.007 502.45C571.007 325.67 713.983 182.694 890.763 182.694H1164.84C1341.62 182.694 1484.6 325.67 1484.6 502.45C1484.6 544.933 1513.83 580.562 1553.12 590.611V1027.76H1507.43V1804.32H1716.19C1777.4 1804.32 1827.19 1754.53 1827.19 1693.32V1138.78C1827.19 1077.57 1777.4 1027.77 1716.19 1027.77H1716.18Z" fill="black"/>
<path d="M1944.59 1164.8H1872.87V1667.27H1944.59C2005.8 1667.27 2055.59 1617.48 2055.59 1556.27V1276.25C2055.59 1214.58 2005.8 1164.79 1944.59 1164.79V1164.8Z" fill="black"/>
<path fill-rule="evenodd" clip-rule="evenodd" d="M1247.97 771.376C1260.47 792.469 1269.68 814.969 1275.59 838.141L1377.44 854.444V948.991L1275.59 965.293C1269.68 988.465 1260.46 1010.97 1247.97 1032.06L1308.44 1115.59L1241.59 1182.43L1158.08 1121.96C1136.98 1134.47 1114.48 1143.67 1091.31 1149.59L1075.01 1251.44H980.451L964.148 1149.59C940.976 1143.67 918.476 1134.46 897.383 1121.96L813.856 1182.43L747.007 1115.59L807.48 1032.07C794.975 1010.98 785.772 988.465 779.855 965.304L678 948.987V854.445L779.849 838.143C785.766 814.971 794.98 792.471 807.475 771.377L747.001 687.851L813.851 621.001L897.377 681.475C918.471 668.975 940.971 659.767 964.143 653.849L980.445 552H1074.99L1091.29 653.849C1114.47 659.766 1136.97 668.98 1158.06 681.475L1241.58 621.001L1308.43 687.851L1247.97 771.376ZM1027.73 707.907C920.697 707.907 833.915 794.677 833.915 901.72C833.915 1008.76 920.691 1095.53 1027.73 1095.53C1134.77 1095.53 1221.54 1008.76 1221.54 901.72C1221.54 794.689 1134.77 707.907 1027.73 707.907ZM1027.73 731.224C933.572 731.224 857.235 807.557 857.235 901.717C857.235 995.877 933.568 1072.21 1027.73 1072.21C1121.89 1072.21 1198.22 995.877 1198.22 901.717C1198.22 807.557 1121.89 731.224 1027.73 731.224ZM1027.73 758.417C1016.37 758.417 1007.17 767.626 1007.17 778.98C1007.17 790.334 1016.37 799.543 1027.73 799.543C1039.08 799.543 1048.29 790.334 1048.29 778.98C1048.29 767.626 1039.08 758.417 1027.73 758.417ZM1008.57 992.124H984.484C973.906 992.124 965.328 1000.7 965.328 1011.28C965.328 1021.86 973.906 1030.44 984.484 1030.44H1070.98C1081.56 1030.44 1090.13 1021.86 1090.13 1011.28C1090.13 1000.7 1081.56 992.124 1070.98 992.124H1046.89L1046.9 850.204C1046.9 839.626 1038.32 831.048 1027.74 831.048H998.48C987.902 831.048 979.324 839.626 979.324 850.204C979.324 860.782 987.902 869.36 998.48 869.36H1008.58L1008.58 992.125L1008.57 992.124Z" fill="black"/>
</svg>
